<svg width="78" height="72" viewBox="0 0 78 72" fill="none" xmlns="http://www.w3.org/2000/svg">
<path d="M59.6251 37.125L43.4813 53.2687C42.6478 54.1055 41.6572 54.7695 40.5664 55.2225C39.4756 55.6755 38.3062 55.9088 37.1251 55.9088C35.944 55.9088 34.7745 55.6755 33.6837 55.2225C32.5929 54.7695 31.6024 54.1055 30.7688 53.2687L18.7313 41.2313C17.8945 40.3977 17.2306 39.4071 16.7776 38.3163C16.3245 37.2256 16.0913 36.0561 16.0913 34.875C16.0913 33.6939 16.3245 32.5244 16.7776 31.4337C17.2306 30.3429 17.8945 29.3523 18.7313 28.5188L34.8751 12.375L59.6251 37.125Z" fill="#99F6E4"/>
<path d="M59.6251 37.125L43.4813 53.2687C42.6478 54.1055 41.6572 54.7695 40.5664 55.2225C39.4756 55.6755 38.3062 55.9088 37.1251 55.9088C35.944 55.9088 34.7745 55.6755 33.6837 55.2225C32.5929 54.7695 31.6024 54.1055 30.7688 53.2687L18.7313 41.2313C17.8945 40.3977 17.2306 39.4071 16.7776 38.3163C16.3245 37.2256 16.0913 36.0561 16.0913 34.875C16.0913 33.6939 16.3245 32.5244 16.7776 31.4337C17.2306 30.3429 17.8945 29.3523 18.7313 28.5188L34.8751 12.375" stroke="#111827" stroke-width="4" stroke-linecap="round" stroke-linejoin="round"/>
<path d="M24.75 47.25L9 63" stroke="#111827" stroke-width="4" stroke-linecap="round" stroke-linejoin="round"/>
<path d="M40.5 18L51.75 6.75" stroke="#111827" stroke-width="4" stroke-linecap="round" stroke-linejoin="round"/>
<path d="M65.25 20.25L54 31.5" stroke="#111827" stroke-width="4" stroke-linecap="round" stroke-linejoin="round"/>
<path d="M63 40.5L31.5 9" stroke="#111827" stroke-width="4" stroke-linecap="round" stroke-linejoin="round"/>
<circle opacity="0.8" cx="60" cy="34" r="18" fill="#4F46E5"/>
</svg>
