<svg width="72" height="86" viewBox="0 0 72 86" fill="none" xmlns="http://www.w3.org/2000/svg">
<path d="M11.25 67.3374C11.25 68.5309 11.7241 69.6755 12.568 70.5194C13.4119 71.3633 14.5565 71.8374 15.75 71.8374H60.75C61.3467 71.8374 61.919 71.6004 62.341 71.1784C62.7629 70.7564 63 70.1841 63 69.5874V38.0874C63 37.4907 62.7629 36.9184 62.341 36.4964C61.919 36.0745 61.3467 35.8374 60.75 35.8374H15.75C14.5565 35.8374 13.4119 35.3633 12.568 34.5194C11.7241 33.6755 11.25 32.5309 11.25 31.3374V67.3374Z" fill="#99F6E4"/>
<path d="M11.25 31.3374V67.3374C11.25 68.5309 11.7241 69.6755 12.568 70.5194C13.4119 71.3633 14.5565 71.8374 15.75 71.8374H60.75C61.3467 71.8374 61.919 71.6004 62.341 71.1784C62.7629 70.7564 63 70.1841 63 69.5874V38.0874C63 37.4907 62.7629 36.9184 62.341 36.4964C61.919 36.0745 61.3467 35.8374 60.75 35.8374H15.75C14.5565 35.8374 13.4119 35.3633 12.568 34.5194C11.7241 33.6755 11.25 32.5309 11.25 31.3374ZM11.25 31.3374C11.25 30.1439 11.7241 28.9993 12.568 28.1554C13.4119 27.3115 14.5565 26.8374 15.75 26.8374H54" stroke="#111827" stroke-width="4" stroke-linecap="round" stroke-linejoin="round"/>
<path d="M50.625 57.2124C52.489 57.2124 54 55.7014 54 53.8374C54 51.9734 52.489 50.4624 50.625 50.4624C48.761 50.4624 47.25 51.9734 47.25 53.8374C47.25 55.7014 48.761 57.2124 50.625 57.2124Z" fill="#111827"/>
<circle opacity="0.8" cx="37" cy="18.3374" r="18" fill="#4F46E5"/>
</svg>
