<svg width="81" height="73" viewBox="0 0 81 73" fill="none" xmlns="http://www.w3.org/2000/svg">
<path d="M18.3094 21.3186C18.1056 21.6686 17.9988 22.0667 18 22.4717V50.203C18.0022 50.6035 18.1099 50.9965 18.3123 51.3421C18.5148 51.6878 18.8048 51.9739 19.1531 52.1717L43.9031 66.0936C44.2368 66.2843 44.6158 66.3814 45 66.3749L45.2531 36.3374L18.3094 21.3186Z" fill="#99F6E4"/>
<path d="M72 50.203V22.4718C71.9978 22.0712 71.8901 21.6783 71.6877 21.3326C71.4852 20.987 71.1952 20.7008 70.8469 20.503L46.0969 6.58114C45.7634 6.3886 45.3851 6.28723 45 6.28723C44.6149 6.28723 44.2366 6.3886 43.9031 6.58114L19.1531 20.503C18.8048 20.7008 18.5148 20.987 18.3123 21.3326C18.1099 21.6783 18.0022 22.0712 18 22.4718V50.203C18.0022 50.6036 18.1099 50.9965 18.3123 51.3422C18.5148 51.6878 18.8048 51.974 19.1531 52.1718L43.9031 66.0936C44.2366 66.2862 44.6149 66.3875 45 66.3875C45.3851 66.3875 45.7634 66.2862 46.0969 66.0936L70.8469 52.1718C71.1952 51.974 71.4852 51.6878 71.6877 51.3422C71.8901 50.9965 71.9978 50.6036 72 50.203V50.203Z" stroke="#111827" stroke-width="4" stroke-linecap="round" stroke-linejoin="round"/>
<path d="M71.6906 21.3186L45.2531 36.3374L18.3093 21.3186" stroke="#111827" stroke-width="4" stroke-linecap="round" stroke-linejoin="round"/>
<path d="M45.2531 36.3374L45 66.3749" stroke="#111827" stroke-width="4" stroke-linecap="round" stroke-linejoin="round"/>
<circle opacity="0.8" cx="18" cy="48.3374" r="18" fill="#4F46E5"/>
</svg>
