<svg width="116" height="22" viewBox="0 0 116 22" fill="none" xmlns="http://www.w3.org/2000/svg">
<path d="M52.8997 5.02631H50.6289L46.3995 11.3704L42.1355 5.02631H40.0381V17.1599H42.2741V8.85704L45.6889 14.0051H47.0929L50.6809 8.82237V17.1599H52.8997V5.02631Z" fill="#3538CD"/>
<path d="M58.4988 17.4025C60.8562 17.4025 61.8789 16.0678 62.3642 15.1492L60.5789 14.2131C60.2842 14.8718 59.7815 15.4958 58.5682 15.4958C57.3548 15.4958 56.4361 14.6811 56.3841 13.5025H62.6416V12.7571C62.6416 10.1224 60.9949 8.3197 58.4642 8.3197C55.8988 8.3197 54.1654 10.0531 54.1654 12.7571V12.9651C54.1654 15.6692 55.9161 17.4025 58.4988 17.4025ZM56.4015 11.8731C56.5575 10.8851 57.2681 10.2264 58.4468 10.2264C59.5735 10.2264 60.3189 10.8851 60.4229 11.8731H56.4015Z" fill="#3538CD"/>
<path d="M65.0253 17.1599H69.7054V15.3572H67.2094V10.3651H69.7054V8.56237H67.2094V5.89299H65.0253V8.56237H62.876V10.3651H65.0253V17.1599Z" fill="#3538CD"/>
<path d="M73.7402 17.4025C75.5429 17.4025 76.0803 16.4318 76.2363 15.9985H76.5656V17.1599H79.495V15.3572H78.3163V11.6304C78.3163 9.48105 76.895 8.3197 74.6416 8.3197C72.4056 8.3197 71.2789 9.44639 70.8629 10.7464L72.8736 11.4224C73.0296 10.6424 73.5149 10.0877 74.6069 10.0877C75.7163 10.0877 76.2016 10.6771 76.2016 11.4744V11.9598H73.8442C71.9029 11.9598 70.5162 12.8784 70.5162 14.6465C70.5162 16.4145 71.9029 17.4025 73.7402 17.4025ZM72.7002 14.5771C72.7002 13.9531 73.1856 13.5891 74.0002 13.5891H76.2016V13.7625C76.2016 14.9065 75.3349 15.6345 74.1216 15.6345C73.1856 15.6345 72.7002 15.2012 72.7002 14.5771Z" fill="#3538CD"/>
<path d="M81.1149 20.6266H88.4297V8.56237H86.2457V12.9304C86.2457 14.5251 85.4656 15.4612 84.131 15.4612C82.9523 15.4612 82.2936 14.8198 82.2936 13.5198V8.56237H80.1095V13.6931C80.1095 15.8252 81.4442 17.2985 83.4549 17.2985C84.9976 17.2985 85.691 16.6225 85.9683 16.0332H86.2803V18.7199H81.1149V20.6266Z" fill="#3538CD"/>
<path d="M90.1841 17.1599H92.3681V8.56237H90.1841V17.1599ZM90.0153 7.55702H92.5368V5.02631H90.0153V7.55702Z" fill="#3538CD"/>
<path d="M98.0297 17.4025C100.387 17.4025 101.41 16.0678 101.895 15.1492L100.11 14.2131C99.8151 14.8718 99.3124 15.4958 98.099 15.4958C96.8857 15.4958 95.967 14.6811 95.915 13.5025H102.172V12.7571C102.172 10.1224 100.526 8.3197 97.995 8.3197C95.4296 8.3197 93.6963 10.0531 93.6963 12.7571V12.9651C93.6963 15.6692 95.447 17.4025 98.0297 17.4025ZM95.9323 11.8731C96.0883 10.8851 96.799 10.2264 97.9777 10.2264C99.1044 10.2264 99.8497 10.8851 99.9537 11.8731H95.9323Z" fill="#3538CD"/>
<path d="M103.44 17.1599H105.624V5.02631H103.44V17.1599Z" fill="#3538CD"/>
<path d="M110.835 17.4025C112.395 17.4025 113.141 16.7785 113.539 16.1198H113.851V17.1599H116.001V5.02631H113.817V9.55039H113.505C113.141 8.94371 112.395 8.3197 110.835 8.3197C108.755 8.3197 106.953 9.9144 106.953 12.7224V12.9998C106.953 15.8078 108.773 17.4025 110.835 17.4025ZM109.137 12.9478V12.7744C109.137 11.1104 110.142 10.2264 111.494 10.2264C112.846 10.2264 113.851 11.1104 113.851 12.7744V12.9478C113.851 14.6118 112.829 15.4958 111.494 15.4958C110.159 15.4958 109.137 14.6118 109.137 12.9478Z" fill="#3538CD"/>
<path d="M4.01109 21.0277L-1.7533e-07 17.0166L4.01109 13.0055L8.02218 17.0166L4.01109 21.0277Z" fill="#8098F9"/>
<path d="M12.0336 21.0277L8.02246 17.0166L12.0336 13.0055L16.0446 17.0166L12.0336 21.0277Z" fill="#8098F9"/>
<path d="M20.055 21.0277L16.0439 17.0166L20.055 13.0055L24.0661 17.0166L20.055 21.0277Z" fill="#8098F9"/>
<path d="M28.0775 21.0277L24.0664 17.0166L28.0775 13.0055L32.0886 17.0166L28.0775 21.0277Z" fill="#8098F9"/>
<path d="M8.02183 17.0166L4.01074 13.0055L8.02183 8.99442L12.0329 13.0055L8.02183 17.0166Z" fill="#6172F3"/>
<path d="M16.0443 17.0166L12.0332 13.0055L16.0443 8.99442L20.0554 13.0055L16.0443 17.0166Z" fill="#6172F3"/>
<path d="M24.0668 17.0166L20.0557 13.0055L24.0668 8.99442L28.0778 13.0055L24.0668 17.0166Z" fill="#6172F3"/>
<path d="M12.0336 13.0056L8.02246 8.99446L12.0336 4.98337L16.0446 8.99446L12.0336 13.0056Z" fill="#3538CD"/>
<path d="M20.055 13.0056L16.0439 8.99446L20.055 4.98337L24.0661 8.99446L20.055 13.0056Z" fill="#3538CD"/>
<path d="M16.0443 8.99445L12.0332 4.98335L16.0443 0.972263L20.0554 4.98335L16.0443 8.99445Z" fill="#2D31A6"/>
</svg>
