<svg width="18" height="18" viewBox="0 0 18 18" fill="none" xmlns="http://www.w3.org/2000/svg">
<path d="M15.8836 7.22813C15.6164 6.95391 15.3422 6.66563 15.2367 6.41953C15.1312 6.17344 15.1383 5.80781 15.1312 5.43516C15.1242 4.75313 15.1102 3.97266 14.5687 3.43125C14.0273 2.88984 13.2469 2.87578 12.5648 2.86875C12.1922 2.86172 11.8125 2.85469 11.5805 2.76328C11.3484 2.67188 11.0461 2.38359 10.7719 2.11641C10.2867 1.65234 9.73125 1.125 9 1.125C8.26875 1.125 7.71328 1.65234 7.22813 2.11641C6.95391 2.38359 6.66563 2.65781 6.41953 2.76328C6.17344 2.86875 5.80781 2.86172 5.43516 2.86875C4.75313 2.87578 3.97266 2.88984 3.43125 3.43125C2.88984 3.97266 2.87578 4.75313 2.86875 5.43516C2.86172 5.80781 2.85469 6.1875 2.76328 6.41953C2.67188 6.65156 2.38359 6.95391 2.11641 7.22813C1.65234 7.71328 1.125 8.26875 1.125 9C1.125 9.73125 1.65234 10.2867 2.11641 10.7719C2.38359 11.0461 2.65781 11.3344 2.76328 11.5805C2.86875 11.8266 2.86172 12.1922 2.86875 12.5648C2.87578 13.2469 2.88984 14.0273 3.43125 14.5687C3.97266 15.1102 4.75313 15.1242 5.43516 15.1312C5.80781 15.1383 6.1875 15.1453 6.41953 15.2367C6.65156 15.3281 6.95391 15.6164 7.22813 15.8836C7.71328 16.3477 8.26875 16.875 9 16.875C9.73125 16.875 10.2867 16.3477 10.7719 15.8836C11.0461 15.6164 11.3344 15.3422 11.5805 15.2367C11.8266 15.1312 12.1922 15.1383 12.5648 15.1312C13.2469 15.1242 14.0273 15.1102 14.5687 14.5687C15.1102 14.0273 15.1242 13.2469 15.1312 12.5648C15.1383 12.1922 15.1453 11.8125 15.2367 11.5805C15.3281 11.3484 15.6164 11.0461 15.8836 10.7719C16.3477 10.2867 16.875 9.73125 16.875 9C16.875 8.26875 16.3477 7.71328 15.8836 7.22813ZM12.4805 7.72031L8.36016 11.6578C8.25363 11.758 8.11265 11.8134 7.96641 11.8125C7.82232 11.813 7.68365 11.7576 7.57969 11.6578L5.51953 9.68906C5.46239 9.63921 5.41592 9.57832 5.38291 9.51005C5.3499 9.44177 5.33104 9.36753 5.32746 9.29179C5.32387 9.21604 5.33564 9.14035 5.36206 9.06927C5.38847 8.99818 5.42899 8.93318 5.48116 8.87815C5.53334 8.82313 5.59611 8.77922 5.66569 8.74907C5.73527 8.71892 5.81023 8.70315 5.88606 8.70271C5.96189 8.70227 6.03703 8.71717 6.10696 8.74651C6.17688 8.77585 6.24015 8.81902 6.29297 8.87344L7.96641 10.4695L11.707 6.90469C11.8164 6.80927 11.9584 6.75982 12.1034 6.76667C12.2484 6.77353 12.3851 6.83617 12.485 6.94149C12.5849 7.04682 12.6402 7.18667 12.6393 7.33181C12.6385 7.47696 12.5816 7.61616 12.4805 7.72031Z" fill="#6366F1"/>
</svg>
