<svg width="24" height="24" viewBox="0 0 24 24" fill="none" xmlns="http://www.w3.org/2000/svg">
<circle cx="12" cy="12" r="12" fill="#666666"/>
<path fill-rule="evenodd" clip-rule="evenodd" d="M17.9631 13.0925C17.9662 13.0939 17.9693 13.0952 17.9724 13.0966L17.9719 13.0974V13.2953C17.9719 13.4389 17.9718 13.5825 17.9716 13.7262C17.9713 14.0954 17.971 14.4647 17.9728 14.8339C17.9738 15.0025 17.9087 15.1289 17.7668 15.2206C17.59 15.3349 17.3991 15.4197 17.199 15.481C16.6182 15.6591 16.0241 15.7765 15.4215 15.8535C14.6044 15.9577 13.7846 16.0185 12.9616 16.0493C12.2714 16.0749 11.5809 16.0765 10.8914 16.0578C10.1479 16.0377 9.40489 15.9899 8.66447 15.9046C7.93542 15.8206 7.21442 15.7046 6.50976 15.4964C6.30849 15.4372 6.11812 15.3529 5.93675 15.2469C5.77834 15.1543 5.70067 15.0297 5.69665 14.8363C5.69013 14.5197 5.69106 14.2032 5.692 13.8844C5.6928 13.6123 5.6936 13.3384 5.68978 13.0614C6.05083 13.4319 6.51334 13.5384 6.97073 13.6438C7.01669 13.6544 7.0626 13.665 7.10834 13.6758C7.67922 13.811 8.26242 13.878 8.84537 13.9446C10.1216 14.0902 11.4019 14.0978 12.6831 14.0805C13.2344 14.0729 13.7849 14.0364 14.3352 13.9926C15.0424 13.9363 15.7442 13.8487 16.439 13.7052C16.8022 13.6301 17.1619 13.5432 17.5024 13.3919C17.6683 13.318 17.8289 13.2344 17.9442 13.0839C17.9506 13.0867 17.9568 13.0896 17.9631 13.0925ZM5.69185 16.0158C5.692 15.8759 5.69215 15.735 5.69215 15.5928L5.69239 15.593C5.93959 15.8933 6.2725 15.9937 6.59974 16.0896C7.2703 16.2861 7.95981 16.3955 8.65311 16.4687C9.46408 16.5544 10.2781 16.5998 11.0941 16.6228C11.7218 16.6406 12.3486 16.6301 12.9751 16.6119C13.6087 16.5934 14.2414 16.5487 14.8722 16.4776C15.5418 16.4021 16.2081 16.3119 16.8611 16.1419C17.155 16.0654 17.4455 15.9773 17.7102 15.8218C17.8014 15.7683 17.881 15.701 17.9546 15.6214C17.9773 15.6556 17.9751 15.6874 17.9731 15.7176C17.9725 15.7262 17.9719 15.7346 17.9719 15.7429C17.9722 15.9283 17.972 16.1138 17.9718 16.2992C17.9714 16.6505 17.971 17.0018 17.9743 17.353C17.9759 17.5474 17.8973 17.6845 17.7337 17.7821C17.4874 17.9289 17.2203 18.0238 16.9462 18.0991C16.3412 18.2654 15.7225 18.3577 15.1004 18.4337C13.6641 18.6094 12.2216 18.6229 10.7785 18.5942C10.2826 18.5843 9.78705 18.5476 9.29194 18.5073C8.54916 18.447 7.81253 18.3487 7.08419 18.1927C6.70984 18.1126 6.34164 18.0089 6.00233 17.823C5.883 17.7575 5.77289 17.6852 5.7182 17.551C5.69312 17.4895 5.69404 17.4254 5.69494 17.3632C5.69515 17.3485 5.69536 17.3339 5.69523 17.3194C5.69091 16.8882 5.69138 16.4569 5.69185 16.0158ZM17.9347 10.5113L17.9347 10.5112L17.9345 10.511C17.9345 10.5111 17.9346 10.5112 17.9347 10.5113ZM17.9347 10.5113C17.7606 10.7016 17.5367 10.8034 17.3016 10.8849C16.5749 11.1366 15.821 11.2552 15.0602 11.334C14.8246 11.3584 14.6366 11.4193 14.473 11.617C14.252 11.8841 13.9627 12.0861 13.6577 12.2558C12.843 12.7093 11.9761 12.8542 11.0647 12.6503C10.2978 12.4786 9.64072 12.1029 9.1198 11.5064C9.04498 11.4207 8.96305 11.3712 8.85058 11.3617C8.38341 11.3227 7.91766 11.2684 7.45973 11.1683C7.37164 11.149 7.28303 11.131 7.19439 11.1129C6.66395 11.005 6.13213 10.8969 5.70304 10.5152C5.68539 10.5338 5.68687 10.5554 5.6883 10.5763C5.68872 10.5823 5.68913 10.5883 5.68907 10.5941C5.68893 10.757 5.68973 10.9199 5.69054 11.0829C5.6924 11.4606 5.69426 11.8383 5.68434 12.2158C5.67794 12.4595 5.79207 12.597 5.98718 12.7015C6.25356 12.844 6.53746 12.9366 6.82894 13.0095C7.57954 13.1975 8.34363 13.2953 9.1127 13.3697C9.72123 13.4284 10.3312 13.4644 10.9411 13.4776C11.6467 13.4928 12.3533 13.4987 13.0594 13.4634C13.626 13.4352 14.1917 13.4023 14.7566 13.3467C15.4516 13.2785 16.1397 13.1764 16.8171 13.0078C17.1394 12.9278 17.4548 12.8272 17.7387 12.6482C17.8814 12.558 17.9565 12.4367 17.9539 12.2565C17.9485 11.8823 17.9493 11.5078 17.9501 11.1335C17.9504 10.9633 17.9508 10.7931 17.9506 10.623C17.9506 10.6158 17.951 10.6085 17.9515 10.6011C17.9531 10.5735 17.9548 10.5442 17.9347 10.5113ZM7.89399 9.31943C7.95959 9.31003 8.02565 9.30056 8.09217 9.29085V9.29061C8.17124 9.26839 8.17982 9.35848 8.18709 9.43486L8.18736 9.43765C8.21482 9.72582 8.28633 10.0033 8.38436 10.2744C8.40489 10.3311 8.42864 10.3867 8.45239 10.4423C8.4689 10.4809 8.48542 10.5195 8.50086 10.5586C8.50475 10.5685 8.51054 10.5786 8.51637 10.5887C8.53146 10.615 8.54685 10.6418 8.53045 10.6673C8.50851 10.7009 8.46967 10.6939 8.43377 10.6875C8.42551 10.686 8.4174 10.6845 8.4097 10.6836C8.36025 10.6777 8.31078 10.672 8.2613 10.6662C8.06465 10.6433 7.86793 10.6204 7.67212 10.5915C7.23218 10.5264 6.79366 10.4532 6.37077 10.3083C6.2583 10.2697 6.15032 10.2223 6.04874 10.1613C5.85151 10.0426 5.85222 9.89748 6.04922 9.77459C6.14014 9.718 6.23912 9.67799 6.33951 9.64318C6.8341 9.47134 7.3485 9.39761 7.89399 9.31943ZM15.5179 9.38935C15.5273 9.31334 15.5274 9.31322 15.5996 9.32045H15.5993C16.1491 9.39811 16.6975 9.48098 17.2196 9.68225C17.2971 9.71208 17.3714 9.74878 17.4382 9.79851C17.59 9.91169 17.5864 10.0403 17.428 10.148C17.3297 10.2148 17.2201 10.2593 17.1083 10.2986C16.6916 10.4453 16.2576 10.5143 15.8239 10.5833C15.8032 10.5866 15.7825 10.5898 15.7618 10.5931C15.6577 10.6097 15.5533 10.6232 15.4489 10.6367C15.3858 10.6448 15.3226 10.653 15.2596 10.6618C15.1774 10.6734 15.1606 10.6452 15.1956 10.5714C15.3259 10.296 15.4158 10.0069 15.4741 9.70829C15.4898 9.62827 15.4993 9.54698 15.5087 9.46584C15.5116 9.44158 15.5144 9.41733 15.5174 9.39314L15.5179 9.38935Z" fill="#FFBD00"/>
<path fill-rule="evenodd" clip-rule="evenodd" d="M11.7964 3.93267C11.8165 3.8856 11.8369 3.83785 11.8584 3.78946L11.8586 3.7897C11.8635 3.79748 11.8683 3.80431 11.8726 3.81059C11.8813 3.82304 11.8884 3.83338 11.8927 3.84487C12.1633 4.57202 12.6016 5.19594 13.0873 5.79098C13.197 5.92546 13.3083 6.05882 13.4195 6.19219C13.7276 6.56159 14.0357 6.93103 14.3135 7.32437C14.6072 7.73993 14.8491 8.18034 14.9091 8.69724C14.9555 9.09598 14.8946 9.48572 14.7606 9.85912C14.3595 10.9763 13.5646 11.667 12.4065 11.8864C11.3213 12.0922 10.3711 11.7742 9.5907 10.985C9.11027 10.4991 8.84886 9.90435 8.76575 9.23142C8.69353 8.64656 8.86046 8.11854 9.16496 7.62319C9.4662 7.13302 9.8348 6.69539 10.2034 6.25773C10.2437 6.20999 10.2839 6.16224 10.324 6.11442C10.8241 5.51844 11.3138 4.91583 11.6677 4.21709C11.7143 4.12534 11.7547 4.03046 11.7964 3.93267ZM13.0453 9.16039C13.5227 9.16039 13.9096 8.77345 13.9096 8.29614C13.9096 7.81882 13.5227 7.43188 13.0453 7.43188C12.568 7.43188 12.1811 7.81882 12.1811 8.29614C12.1811 8.77345 12.568 9.16039 13.0453 9.16039Z" fill="#A0A0FF"/>
</svg>
