<svg width="22" height="18" viewBox="0 0 22 18" fill="none" xmlns="http://www.w3.org/2000/svg">
<path d="M21.162 2.65605C20.3986 2.99374 19.589 3.21552 18.76 3.31405C19.6337 2.79148 20.2877 1.96906 20.6 1.00005C19.78 1.48805 18.881 1.83005 17.944 2.01505C17.3146 1.34163 16.4804 0.895012 15.5709 0.744633C14.6615 0.594255 13.7279 0.74854 12.9153 1.1835C12.1026 1.61846 11.4564 2.30973 11.0771 3.14984C10.6978 3.98995 10.6067 4.93183 10.818 5.82905C9.1551 5.7457 7.52832 5.31357 6.04328 4.56071C4.55823 3.80785 3.24812 2.7511 2.19799 1.45905C1.82628 2.0975 1.63095 2.82328 1.63199 3.56205C1.63199 5.01205 2.36999 6.29305 3.49199 7.04305C2.828 7.02215 2.17862 6.84283 1.59799 6.52005V6.57205C1.59819 7.53775 1.93236 8.47366 2.54384 9.22111C3.15532 9.96855 4.00647 10.4815 4.95299 10.673C4.33661 10.8401 3.6903 10.8647 3.06299 10.745C3.32986 11.5763 3.85 12.3032 4.55058 12.8242C5.25117 13.3451 6.09712 13.6338 6.96999 13.65C6.10247 14.3314 5.10917 14.835 4.04687 15.1322C2.98458 15.4294 1.87412 15.5143 0.778992 15.382C2.69069 16.6115 4.91609 17.2642 7.18899 17.262C14.882 17.262 19.089 10.889 19.089 5.36205C19.089 5.18205 19.084 5.00005 19.076 4.82205C19.8949 4.23022 20.6016 3.49707 21.163 2.65705L21.162 2.65605Z" fill="#6B7280"/>
</svg>
