<svg width="78" height="73" viewBox="0 0 78 73" fill="none" xmlns="http://www.w3.org/2000/svg">
<path d="M9.30938 21.3186C9.10558 21.6686 8.99879 22.0667 9.00001 22.4717V50.203C9.00216 50.6035 9.10989 50.9965 9.31235 51.3421C9.5148 51.6878 9.80481 51.9739 10.1531 52.1717L34.9031 66.0936C35.2368 66.2843 35.6158 66.3814 36 66.3749L36.2531 36.3374L9.30938 21.3186Z" fill="#99F6E4"/>
<path d="M63 50.203V22.4718C62.9978 22.0712 62.8901 21.6783 62.6877 21.3326C62.4852 20.987 62.1952 20.7008 61.8469 20.503L37.0969 6.58114C36.7634 6.3886 36.3851 6.28723 36 6.28723C35.6149 6.28723 35.2366 6.3886 34.9031 6.58114L10.1531 20.503C9.8048 20.7008 9.51479 20.987 9.31234 21.3326C9.10988 21.6783 9.00215 22.0712 9 22.4718V50.203C9.00215 50.6036 9.10988 50.9965 9.31234 51.3422C9.51479 51.6878 9.8048 51.974 10.1531 52.1718L34.9031 66.0936C35.2366 66.2862 35.6149 66.3875 36 66.3875C36.3851 66.3875 36.7634 66.2862 37.0969 66.0936L61.8469 52.1718C62.1952 51.974 62.4852 51.6878 62.6877 51.3422C62.8901 50.9965 62.9978 50.6036 63 50.203V50.203Z" stroke="#111827" stroke-width="4" stroke-linecap="round" stroke-linejoin="round"/>
<path d="M62.6906 21.3186L36.2531 36.3374L9.30933 21.3186" stroke="#111827" stroke-width="4" stroke-linecap="round" stroke-linejoin="round"/>
<path d="M36.2531 36.3374L36 66.3749" stroke="#111827" stroke-width="4" stroke-linecap="round" stroke-linejoin="round"/>
<circle opacity="0.8" cx="60" cy="22.3374" r="18" fill="#4F46E5"/>
</svg>
