<svg width="24" height="24" viewBox="0 0 24 24" fill="none" xmlns="http://www.w3.org/2000/svg">
<path d="M0 12C0 5.37258 5.37258 0 12 0C18.6274 0 24 5.37258 24 12C24 18.6274 18.6274 24 12 24C5.37258 24 0 18.6274 0 12Z" fill="#6366F1"/>
<path fill-rule="evenodd" clip-rule="evenodd" d="M11.9999 4C12.9036 4 13.6363 4.73262 13.6363 5.63636C13.6363 6.5401 12.9036 7.27273 11.9999 7.27273C11.0962 7.27273 10.3635 6.5401 10.3635 5.63636C10.3635 4.73262 11.0962 4 11.9999 4ZM8.78774 10.5457C8.63152 10.1518 8.54565 9.72232 8.54565 9.27278C8.54565 8.67889 8.69552 8.12 8.9595 7.63187C9.60951 8.62023 10.7285 9.27271 11.9999 9.27271C13.2715 9.27271 14.3907 8.62 15.0406 7.63135C15.3048 8.1196 15.4547 8.67868 15.4547 9.27278C15.4547 9.7224 15.3688 10.152 15.2126 10.5459C15.2126 10.5459 15.2126 10.5459 15.2126 10.5459C14.7057 11.8238 13.4585 12.7274 12.0002 12.7274C10.5418 12.7274 9.29454 11.8237 8.78774 10.5457C8.78774 10.5457 8.78774 10.5457 8.78774 10.5457ZM16.617 12.1788C15.6512 13.7101 13.9445 14.7274 12.0002 14.7274C10.0558 14.7274 8.34902 13.71 7.38317 12.1785C6.96522 12.9339 6.72729 13.8028 6.72729 14.7273C6.72729 17.6394 9.08798 20 12 20C14.9121 20 17.2727 17.6394 17.2727 14.7273C17.2727 13.803 17.0349 12.9342 16.617 12.1788Z" fill="white"/>
</svg>